HIERARCHY
ROOT Hips
{
	OFFSET	0.00	0.00	0.00
	CHANNELS 6 Xposition Yposition Zposition Zrotation Xrotation Yrotation
	JOINT LeftUpLeg
	{
		OFFSET	 0.126116	-0.014019	-0.065224
		CHANNELS 3 Zrotation Xrotation Yrotation
		JOINT LeftLeg
		{
			OFFSET	 0.000000	 0.000000	 0.569914
			CHANNELS 3 Zrotation Xrotation Yrotation
			JOINT LeftFoot
			{
				OFFSET	 0.000000	 0.000000	 0.544423
				CHANNELS 3 Zrotation Xrotation Yrotation
				JOINT LeftToeBase
				{
					OFFSET	 0.000000	 0.000000	 0.207117
					CHANNELS 3 Zrotation Xrotation Yrotation
					End Site
					{
						OFFSET	 0.000000	 0.000000	 0.207117
					}
				}
			}
		}
	}
	JOINT RightUpLeg
	{
		OFFSET	-0.124023	-0.008373	-0.065224
		CHANNELS 3 Zrotation Xrotation Yrotation
		JOINT RightLeg
		{
			OFFSET	 0.000000	 0.000000	 0.570047
			CHANNELS 3 Zrotation Xrotation Yrotation
			JOINT RightFoot
			{
				OFFSET	 0.000000	 0.000000	 0.544354
				CHANNELS 3 Zrotation Xrotation Yrotation
				JOINT RightToeBase
				{
					OFFSET	 0.000000	 0.000000	 0.207540
					CHANNELS 3 Zrotation Xrotation Yrotation
					End Site
					{
						OFFSET	 0.000000	 0.000000	 0.207540
					}
				}
			}
		}
	}
	JOINT Spine
	{
		OFFSET	 0.000184	-0.007763	 0.117403
		CHANNELS 3 Zrotation Xrotation Yrotation
		JOINT Spine1
		{
			OFFSET	 0.000000	 0.000000	 0.137269
			CHANNELS 3 Zrotation Xrotation Yrotation
			JOINT Spine2
			{
				OFFSET	 0.000000	 0.000000	 0.156879
				CHANNELS 3 Zrotation Xrotation Yrotation
				JOINT LeftShoulder
				{
					OFFSET	 0.080501	-0.002496	 0.160144
					CHANNELS 3 Zrotation Xrotation Yrotation
					JOINT LeftArm
					{
						OFFSET	 0.000000	 0.000000	 0.164363
						CHANNELS 3 Zrotation Xrotation Yrotation
						JOINT LeftForeArm
						{
							OFFSET	 0.000000	 0.000000	 0.364576
							CHANNELS 3 Zrotation Xrotation Yrotation
							JOINT LeftHand
							{
								OFFSET	 0.000000	 0.000000	 0.360812
								CHANNELS 3 Zrotation Xrotation Yrotation
								JOINT LeftHandIndex1
								{
									OFFSET	 0.000000	 0.000000	 0.086006
									CHANNELS 3 Zrotation Xrotation Yrotation
									JOINT LeftHandIndex2
									{
										OFFSET	 0.000000	 0.000000	 0.047236
										CHANNELS 3 Zrotation Xrotation Yrotation
										JOINT LeftHandIndex3
										{
											OFFSET	-0.004284	-0.000551	 0.038166
											CHANNELS 3 Zrotation Xrotation Yrotation
											End Site
											{
												OFFSET	-0.004284	-0.000551	 0.038166
											}
										}
									}
								}
							}
						}
					}
				}
				JOINT Neck
				{
					OFFSET	 0.000000	 0.000000	 0.176489
					CHANNELS 3 Zrotation Xrotation Yrotation
					JOINT Head
					{
						OFFSET	 0.000000	-0.001747	 0.077940
						CHANNELS 3 Zrotation Xrotation Yrotation
						End Site
						{
							OFFSET	 0.000000	-0.001747	 0.077940
						}
					}
				}
				JOINT RightShoulder
				{
					OFFSET	-0.080363	 0.000306	 0.159706
					CHANNELS 3 Zrotation Xrotation Yrotation
					JOINT RightArm
					{
						OFFSET	 0.000000	 0.000000	 0.164196
						CHANNELS 3 Zrotation Xrotation Yrotation
						JOINT RightForeArm
						{
							OFFSET	 0.000000	 0.000000	 0.365611
							CHANNELS 3 Zrotation Xrotation Yrotation
							JOINT RightHand
							{
								OFFSET	 0.000000	 0.000000	 0.360648
								CHANNELS 3 Zrotation Xrotation Yrotation
								JOINT RightHandIndex1
								{
									OFFSET	 0.000000	 0.000000	 0.069977
									CHANNELS 3 Zrotation Xrotation Yrotation
									JOINT RightHandIndex2
									{
										OFFSET	 0.000000	 0.000000	 0.052305
										CHANNELS 3 Zrotation Xrotation Yrotation
										JOINT RightHandIndex3
										{
											OFFSET	 0.009002	-0.000782	 0.042196
											CHANNELS 3 Zrotation Xrotation Yrotation
											End Site
											{
												OFFSET	 0.009002	-0.000782	 0.042196
											}
										}
									}
								}
							}
						}
					}
				}
			}
		}
	}
}
MOTION
Frames:    5
Frame Time: 0.03333334
-0.058913	-2.229548	 1.236233	 4.061055	-1.846566	-3.701710	 0.611936	-7.172996	-170.527500	 0.292246	-28.033440	-0.021713	 24.364780	 70.802400	-27.369620	-2.371393	 31.276590	-0.062283	-3.004710	-28.681460	-175.754900	 10.264180	-53.529720	 8.892610	 8.148640	 65.117500	-3.303823	 2.357821	 33.167990	 0.107132	 1.901652	 8.488632	 1.059709	 1.706078	 4.813047	 3.147590	-8.648101	-4.755745	-4.383514	-93.761920	 58.860340	 175.776800	 26.137410	 47.348580	-25.120450	-0.703778	-2.433148	-20.003280	-0.112242	-8.769998	-5.931830	-4.869484	 19.239780	-2.786433	-3.891032	 21.351000	 2.212408	-4.808240	 5.545738	 0.146954	-0.128149	-5.012774	 0.157522	-10.554340	 0.722153	 2.055730	 89.834390	 61.579120	-179.875700	-20.379860	 52.179380	 7.651857	-1.086717	-3.286543	 17.287410	-4.494205	 5.150572	 0.742317	 6.304922	 26.038880	-0.578655	 1.721580	 45.991910	-6.846467	 0.340131	 25.086740	 3.663684
-0.059742	-2.243990	 1.236921	 5.068845	-1.371843	-3.686776	-0.304285	-7.064019	-170.610500	 0.896150	-27.949700	 0.254715	 23.724640	 70.741830	-27.253050	-2.369624	 31.577150	-0.069070	-5.101692	-30.140250	-175.780900	 11.001040	-51.845140	 9.296199	 14.198770	 72.460730	-10.667060	 2.358848	 33.017900	 0.103639	 1.283070	 8.308283	 0.900295	 1.783640	 4.236309	 3.353777	-8.989941	-4.457098	-4.445928	-93.948170	 59.008880	 175.361700	 26.933850	 46.353180	-26.008520	-1.702443	-2.213994	-21.358140	 0.240656	-9.658335	-7.604928	-4.869026	 19.249060	-2.786536	-3.883585	 21.446490	 2.204843	-4.808272	 5.545353	 0.146974	-0.072447	-5.079235	 0.185906	-10.719830	 0.784407	 1.817739	 89.775860	 61.653430	 179.985100	-19.784670	 52.590660	 6.580011	-1.383492	-3.370475	 17.230620	-4.549177	 5.097082	 0.528354	 6.292995	 24.764090	-0.537562	 1.900439	 44.579620	-7.006430	 0.552171	 24.162480	 3.555166
-0.060702	-2.262082	 1.237298	 5.934713	-0.615939	-3.736137	-1.117514	-6.990335	-170.678100	 1.203438	-27.741270	 0.396015	 23.092580	 70.728500	-26.846750	-2.368148	 31.821680	-0.074611	-7.250538	-32.116540	-175.894500	 11.924760	-49.476900	 9.707318	 27.519980	 78.388600	-25.570930	 2.359044	 32.988920	 0.102964	 0.851891	 7.852196	 0.717841	 1.819428	 3.754570	 3.679542	-9.313972	-4.216924	-4.577360	-94.161070	 59.019930	 174.905800	 27.159250	 45.198920	-26.464580	-2.089619	-2.271766	-23.315680	 0.791543	-10.943700	-8.425834	-4.862533	 19.425130	-2.800173	-3.871583	 21.599840	 2.192648	-4.803286	 5.604095	 0.143541	-0.028169	-5.112839	 0.246768	-10.906760	 0.859241	 1.681588	 89.695340	 61.750980	 179.792400	-19.192290	 53.040610	 5.345851	-1.993884	-3.560149	 17.197810	-4.876787	 4.787087	 0.232977	 6.271693	 23.226010	-0.556248	 2.078376	 43.092550	-7.164250	 0.868091	 22.756530	 3.398723
-0.061409	-2.287466	 1.237115	 6.473022	 0.240928	-4.099485	-1.571587	-6.346095	-170.481200	 1.434319	-27.019050	 0.491405	 23.014100	 71.151670	-26.935080	-2.365486	 32.250180	-0.084383	-8.070177	-34.459140	-175.598500	 12.537730	-45.924500	 9.635275	 47.718740	 79.992960	-47.780370	 2.361428	 32.631950	 0.094701	 0.676647	 7.214244	 0.836687	 1.884537	 3.633508	 3.959752	-9.609990	-4.055099	-4.711717	-94.374530	 58.944790	 174.462200	 26.946860	 43.584090	-27.026240	-2.975800	-2.132691	-25.971890	 0.725781	-12.996120	-8.029302	-4.845875	 19.816710	-2.819318	-3.850548	 21.867130	 2.171274	-4.790468	 5.755010	 0.134683	-0.004780	-5.185004	 0.316042	-11.133180	 0.943634	 1.640894	 89.554660	 61.924150	 179.452200	-18.369980	 53.599950	 3.908065	-3.225835	-3.925883	 17.061000	-5.549431	 4.266265	-0.725210	 6.236746	 21.162010	-0.622934	 2.261830	 41.467060	-7.325474	 1.317912	 20.695850	 3.187278
-0.062106	-2.313972	 1.236093	 6.625525	 0.621735	-4.423178	-1.760711	-5.040963	-170.325900	 1.537069	-26.227750	 0.523470	 22.647040	 71.212270	-26.607000	-2.359028	 33.226220	-0.106921	-6.722006	-35.823650	-174.857200	 11.878140	-42.000980	 8.531523	 88.866460	 79.750360	-89.836960	 2.353079	 33.838920	 0.122852	 0.565821	 6.779469	 1.038360	 1.963903	 4.066609	 3.996965	-9.763634	-4.045679	-4.727313	-94.474680	 58.871590	 174.260700	 26.020800	 42.189630	-27.554980	-3.634481	-1.999380	-28.282630	 0.281611	-14.550840	-7.549796	-4.826539	 20.201740	-2.822598	-3.824871	 22.190870	 2.145188	-4.771047	 5.983035	 0.121237	 0.021884	-5.274009	 0.341769	-11.250210	 0.998733	 1.572988	 89.450970	 62.026350	 179.199600	-17.359800	 54.062700	 2.394780	-4.550560	-4.342289	 17.010120	-6.089122	 3.330911	-2.072617	 6.197727	 19.135950	-0.705376	 2.521392	 38.993270	-7.550658	 1.753905	 18.634000	 2.995634
